<?xml version="1.0" standalone="no"?>
<!DOCTYPE svg PUBLIC "-//W3C//DTD SVG 20010904//EN"
 "http://www.w3.org/TR/2001/REC-SVG-20010904/DTD/svg10.dtd">
<svg version="1.0" xmlns="http://www.w3.org/2000/svg"
 width="500.000000pt" height="500.000000pt" viewBox="0 0 500.000000 500.000000"
 preserveAspectRatio="xMidYMid meet">

<g transform="translate(0.000000,500.000000) scale(0.100000,-0.100000)"
fill="#000000" stroke="none">
<path d="M2291 3910 c-221 -31 -454 -125 -641 -258 -140 -100 -322 -300 -395
-433 -39 -73 -25 -59 30 29 70 111 106 155 215 262 203 200 466 333 755 380
165 27 359 25 510 -5 73 -15 88 -11 25 6 -59 16 -114 21 -255 24 -99 2 -209 0
-244 -5z"/>
<path d="M2948 3840 c82 -28 213 -89 282 -132 51 -31 174 -124 188 -141 11
-13 -16 -44 -179 -205 l-193 -189 -30 27 c-35 33 -171 115 -206 124 -14 4 12
-13 58 -37 46 -25 104 -63 131 -85 l47 -40 202 195 202 195 -53 45 c-75 65
-204 148 -300 193 -81 38 -200 81 -221 79 -6 0 26 -13 72 -29z"/>
<path d="M2385 3384 c-44 -7 -156 -36 -152 -41 2 -2 35 4 73 13 73 17 243 23
329 11 41 -5 45 -5 25 4 -26 12 -222 21 -275 13z"/>
<path d="M2698 3353 c7 -3 16 -2 19 1 4 3 -2 6 -13 5 -11 0 -14 -3 -6 -6z"/>
<path d="M2745 3340 c27 -12 43 -12 25 0 -8 5 -22 9 -30 9 -10 0 -8 -3 5 -9z"/>
<path d="M2190 3333 c-75 -27 -214 -113 -285 -176 -22 -19 -43 -33 -47 -31 -4
3 -5 -2 -2 -10 3 -9 2 -16 -4 -16 -11 0 -115 -140 -109 -146 2 -3 17 15 32 38
41 63 151 174 221 224 34 24 99 62 145 84 73 34 96 50 49 33z"/>
<path d="M1217 3153 c-13 -13 -6 -21 89 -94 53 -41 155 -120 227 -177 80 -61
134 -97 136 -90 2 7 19 44 38 81 19 38 29 66 23 62 -6 -3 -24 -36 -40 -72
l-30 -65 -38 29 c-181 133 -400 310 -397 321 5 13 2 15 -8 5z"/>
<path d="M2500 2480 l0 -260 393 2 392 3 -387 2 -388 3 0 250 0 250 659 0
c716 0 671 4 671 -52 0 -12 3 -19 6 -15 4 3 3 22 0 42 l-7 35 -669 0 -670 0 0
-260z"/>
<path d="M3853 2590 c0 -30 2 -43 4 -27 2 15 2 39 0 55 -2 15 -4 2 -4 -28z"/>
<path d="M3863 2455 c0 -33 2 -45 4 -27 2 18 2 45 0 60 -2 15 -4 0 -4 -33z"/>
<path d="M3853 2305 c0 -27 2 -38 4 -22 2 15 2 37 0 50 -2 12 -4 0 -4 -28z"/>
<path d="M3823 2127 c-13 -61 -25 -123 -28 -137 -3 -14 2 -5 10 20 20 60 47
195 43 214 -2 9 -13 -35 -25 -97z"/>
<path d="M3282 2168 c-7 -28 -11 -53 -8 -55 2 -2 9 19 16 47 7 28 10 53 8 55
-3 3 -10 -18 -16 -47z"/>
<path d="M3245 2054 c-28 -73 -110 -188 -183 -255 -37 -34 -58 -57 -46 -51 50
26 171 171 214 256 24 47 41 88 38 91 -3 3 -13 -15 -23 -41z"/>
<path d="M3760 1898 c-30 -82 -89 -199 -133 -266 -42 -64 -167 -212 -179 -212
-4 0 -8 -6 -8 -12 1 -20 127 119 180 197 54 80 130 227 154 299 25 72 12 67
-14 -6z"/>
<path d="M1870 1855 c13 -14 26 -25 28 -25 3 0 -5 11 -18 25 -13 14 -26 25
-28 25 -3 0 5 -11 18 -25z"/>
<path d="M1560 1396 c0 -2 8 -10 18 -17 15 -13 16 -12 3 4 -13 16 -21 21 -21
13z"/>
</g>
</svg>
